<?xml version="1.0" standalone="no"?>
<!DOCTYPE svg PUBLIC "-//W3C//DTD SVG 20010904//EN"
 "http://www.w3.org/TR/2001/REC-SVG-20010904/DTD/svg10.dtd">
<svg version="1.0" xmlns="http://www.w3.org/2000/svg"
 width="500.000000pt" height="500.000000pt" viewBox="0 0 500.000000 500.000000"
 preserveAspectRatio="xMidYMid meet">

<g transform="translate(0.000000,500.000000) scale(0.100000,-0.100000)"
fill="#000000" stroke="none">
<path d="M1690 3130 l0 -1370 154 0 c146 0 154 -1 149 -19 -6 -23 23 -81 41
-81 7 0 23 11 35 24 17 18 22 32 17 50 l-6 26 140 0 141 0 -8 -22 c-4 -13 -8
-44 -8 -70 0 -41 5 -52 35 -82 37 -36 80 -55 80 -36 0 6 -9 28 -20 50 -19 38
-26 111 -14 144 5 12 20 16 61 16 40 0 54 3 50 12 -3 7 -8 20 -12 29 -7 18 19
29 72 29 29 0 33 -4 39 -35 6 -32 9 -35 40 -35 38 0 38 -1 24 34 -8 22 -7 26
9 26 29 0 72 -39 92 -84 34 -76 21 -165 -34 -223 -40 -42 -84 -57 -148 -48
l-51 7 7 72 c4 39 13 105 20 146 7 41 10 79 5 84 -5 4 -24 -4 -43 -18 -39 -30
-40 -33 -57 -196 -9 -79 -14 -98 -33 -113 -22 -17 -22 -17 -2 -33 18 -13 20
-27 20 -127 0 -105 1 -112 20 -113 11 -1 28 -5 37 -9 16 -6 18 4 20 112 l3
118 35 0 c35 0 36 -1 91 -113 81 -164 144 -220 267 -237 60 -8 71 7 17 25 -45
15 -109 87 -164 186 -24 43 -59 98 -78 121 l-33 42 47 21 c67 29 109 64 137
113 50 86 42 191 -19 272 -34 44 -33 41 -138 447 -19 75 -20 78 -46 72 -14 -4
-29 -9 -32 -13 -4 -3 19 -102 51 -220 l57 -213 -39 5 c-22 3 -42 8 -45 10 -2
3 -27 94 -55 202 l-52 197 -30 -6 c-17 -4 -34 -10 -39 -15 -4 -4 3 -43 17 -87
47 -153 87 -296 84 -299 -6 -4 -100 -26 -103 -23 -1 2 -29 68 -61 148 -54 136
-58 150 -58 230 -1 80 1 90 41 170 24 47 50 114 59 150 21 83 15 204 -15 281
-19 50 -24 56 -46 52 -20 -4 -25 0 -34 33 -5 22 -43 170 -85 329 -41 160 -115
446 -165 637 -50 191 -91 364 -91 383 0 107 120 166 206 100 39 -30 29 2 157
-490 261 -996 246 -935 228 -935 -27 0 0 -127 48 -225 41 -82 97 -145 176
-194 71 -45 126 -111 146 -176 6 -22 31 -168 53 -325 l42 -285 107 -3 107 -3
0 1371 0 1370 -810 0 -810 0 0 -1370z"/>
<path d="M2810 2371 c-17 -5 -24 -14 -23 -27 1 -10 34 -146 75 -301 l73 -283
33 0 c17 0 32 2 32 5 0 2 -29 132 -65 287 -36 156 -68 293 -70 306 -6 23 -13
25 -55 13z"/>
<path d="M990 1893 c-86 -32 -170 -141 -170 -222 0 -46 51 -111 98 -126 28 -8
28 4 2 55 -12 23 -20 59 -20 86 0 96 79 150 209 142 60 -3 75 -8 107 -34 68
-55 79 -89 79 -249 0 -167 -17 -236 -75 -297 -29 -30 -44 -38 -72 -38 -33 0
-71 24 -81 52 -8 23 -20 0 -13 -27 31 -122 210 -82 290 65 40 73 56 142 56
240 -1 175 -53 285 -164 343 -55 28 -183 33 -246 10z"/>
<path d="M4081 1876 c-29 -30 -32 -41 -45 -147 -8 -63 -17 -161 -21 -219 -6
-90 -11 -113 -38 -164 -35 -66 -66 -91 -101 -82 -41 10 -40 35 3 81 70 76 89
136 53 168 -25 23 -33 22 -79 -12 -79 -57 -115 -179 -74 -248 47 -76 149 -45
204 62 l16 30 7 -43 c7 -46 29 -80 54 -83 50 -5 66 12 106 117 29 77 18 85
-17 12 -17 -38 -30 -53 -44 -53 -18 0 -20 8 -23 75 -3 73 20 373 37 478 4 29
5 55 1 57 -4 2 -21 -11 -39 -29z m-203 -447 c3 -37 -31 -95 -49 -84 -23 15 8
131 33 123 7 -3 14 -20 16 -39z"/>
<path d="M1050 1765 c-7 -8 -18 -15 -26 -15 -7 0 -18 -17 -23 -37 -14 -57 -31
-243 -34 -378 -2 -113 -1 -120 18 -121 11 -1 28 -5 38 -9 15 -6 17 0 17 67 0
101 18 323 35 416 7 42 11 80 8 85 -7 11 -19 8 -33 -8z"/>
<path d="M1535 1511 c-75 -47 -115 -117 -115 -201 0 -41 5 -56 25 -76 21 -21
28 -23 47 -13 13 6 31 21 40 33 10 11 18 15 18 9 0 -7 9 -22 20 -33 30 -30 63
-10 96 59 l26 56 13 -43 c16 -54 41 -92 60 -92 19 0 81 55 102 91 10 17 26 29
38 29 11 0 31 7 43 16 22 15 22 14 22 -23 0 -21 9 -52 19 -70 43 -70 99 -47
144 61 33 78 30 116 -2 41 -28 -62 -39 -75 -57 -68 -24 9 -36 80 -29 165 4 46
3 78 -2 78 -22 0 -61 -58 -68 -99 -7 -45 -34 -81 -60 -81 -13 0 -14 10 -9 65
8 79 -9 115 -56 115 -53 0 -67 -72 -28 -141 21 -37 21 -39 4 -83 -10 -25 -22
-48 -26 -51 -16 -10 -40 97 -40 177 0 78 -1 79 -22 73 -33 -10 -48 -34 -48
-74 0 -37 -39 -133 -58 -145 -13 -8 -32 24 -32 53 0 28 -7 26 -37 -9 -46 -55
-89 -31 -81 45 10 86 68 134 68 55 0 -48 18 -53 50 -13 15 20 20 38 18 67 -3
35 -6 41 -28 44 -14 1 -38 -6 -55 -17z m309 -37 c3 -9 6 -30 6 -47 0 -41 -19
-23 -27 26 -6 37 9 52 21 21z"/>
<path d="M3035 1512 c-69 -43 -115 -121 -115 -197 0 -52 12 -80 40 -95 15 -8
26 -4 54 20 33 29 35 30 41 10 3 -11 16 -25 27 -31 31 -17 68 28 109 131 l34
85 5 -100 c3 -55 9 -106 13 -112 24 -38 55 4 96 130 13 37 27 67 32 67 5 0 9
-36 9 -80 0 -73 3 -83 25 -105 13 -14 28 -25 33 -25 17 0 61 40 68 62 6 20 7
19 19 -10 8 -17 23 -35 34 -41 17 -9 26 -6 56 20 l35 31 -6 -58 c-4 -33 -14
-117 -24 -187 -9 -71 -13 -130 -9 -133 14 -8 68 31 74 54 8 34 25 256 25 341
l0 75 -33 -32 c-58 -56 -105 -31 -94 50 11 82 67 122 67 48 0 -48 18 -53 49
-14 25 32 29 102 6 110 -51 20 -149 -66 -185 -162 -27 -74 -38 -88 -56 -73
-10 8 -14 38 -14 104 0 105 -5 125 -30 125 -26 0 -49 -31 -79 -110 l-28 -71
-6 38 c-4 21 -7 52 -7 70 0 44 -9 63 -30 63 -26 0 -46 -28 -80 -110 -17 -41
-38 -86 -47 -99 -15 -23 -16 -24 -29 -6 -8 10 -14 29 -14 42 0 30 -6 29 -37
-7 -61 -73 -113 6 -65 100 23 47 46 46 50 -2 4 -46 22 -49 52 -11 15 20 20 38
18 67 -3 35 -6 41 -28 44 -14 1 -39 -6 -55 -16z"/>
</g>
</svg>
